<?xml version="1.0" encoding="iso-8859-1"?>
<!-- Uploaded to: SVG Repo, www.svgrepo.com, Generator: SVG Repo Mixer Tools -->
<svg fill="#000000" height="800px" width="800px" version="1.1" id="Layer_1" xmlns="http://www.w3.org/2000/svg" xmlns:xlink="http://www.w3.org/1999/xlink" 
	 viewBox="0 0 512 512" xml:space="preserve">
<g>
	<g>
		<path d="M217.528,316.048c13.159,25.904,30.667,47.706,51.741,63.859v-63.859H217.528z"/>
	</g>
</g>
<g>
	<g>
		<path d="M365.23,100.521h-64.796v76.598h78.934C378.028,149.813,373.177,123.998,365.23,100.521z"/>
	</g>
</g>
<g>
	<g>
		<path d="M204.473,100.521c-7.946,23.477-12.798,49.291-14.138,76.598h78.934v-76.598H204.473z"/>
	</g>
</g>
<g>
	<g>
		<path d="M190.335,208.285c1.34,27.306,6.19,53.12,14.138,76.597h64.796v-76.597H190.335z"/>
	</g>
</g>
<g>
	<g>
		<path d="M462.288,100.521H397.88c7.14,23.893,11.477,49.636,12.685,76.598h73.521C482.04,150.689,474.774,124.594,462.288,100.521
			z"/>
	</g>
</g>
<g>
	<g>
		<path d="M159.136,208.286H85.616c2.048,26.429,9.313,52.524,21.798,76.597h64.408C164.682,260.99,160.345,235.246,159.136,208.286
			z"/>
	</g>
</g>
<g>
	<g>
		<path d="M183.173,316.048h-55.686v0c4.906,6.25,10.226,12.279,15.983,18.035c23.866,23.866,52.749,40.932,84.296,50.252
			C209.562,365.26,194.518,342.148,183.173,316.048z"/>
	</g>
</g>
<g>
	<g>
		<path d="M300.435,208.285v76.597h64.796c7.946-23.477,12.797-49.29,14.137-76.597H300.435z"/>
	</g>
</g>
<g>
	<g>
		<path d="M410.567,208.285c-1.208,26.961-5.546,52.705-12.685,76.597h64.408c12.486-24.072,19.751-50.167,21.799-76.597H410.567z"
			/>
	</g>
</g>
<g>
	<g>
		<path d="M300.435,5.497v63.859h51.741C339.017,43.452,321.509,21.65,300.435,5.497z"/>
	</g>
</g>
<g>
	<g>
		<path d="M300.434,316.047v63.859c21.074-16.153,38.583-37.955,51.741-63.859H300.434z"/>
	</g>
</g>
<g>
	<g>
		<path d="M217.527,69.357h51.741V5.498C248.194,21.651,230.686,43.453,217.527,69.357z"/>
	</g>
</g>
<g>
	<g>
		<path d="M107.414,100.521c-12.486,24.072-19.751,50.167-21.799,76.598h73.522c1.208-26.961,5.546-52.705,12.685-76.598H107.414z"
			/>
	</g>
</g>
<g>
	<g>
		<path d="M426.233,51.32c-23.865-23.866-52.749-40.932-84.295-50.252c18.203,19.075,33.248,42.188,44.593,68.288h55.686
			C437.31,63.106,431.99,57.077,426.233,51.32z"/>
	</g>
</g>
<g>
	<g>
		<path d="M466.536,374.385l11.019-11.019l-18.646-18.645l-22.084-22.084c1.853-2.165,3.644-4.365,5.391-6.589h-11.981l-0.215-0.215
			l-0.215,0.215h-43.275c-11.344,26.1-26.389,49.213-44.593,68.288c26.66-7.877,51.415-21.288,72.849-39.66l18.321,18.32
			c-41.102,35.889-93.172,55.481-148.257,55.481c-60.306,0-117.003-23.484-159.647-66.128
			c-42.643-42.643-66.127-99.34-66.127-159.646c0-55.084,19.592-107.154,55.48-148.256l18.32,18.32
			c-1.853,2.165-3.644,4.365-5.391,6.589h11.981l0.215,0.215l0.215-0.215h43.275c11.344-26.1,26.389-49.213,44.593-68.288
			c-26.66,7.877-51.416,21.288-72.849,39.661L132.826,18.64L114.186,0l-11.018,11.018C54.638,59.547,27.912,124.07,27.912,192.702
			c0,68.631,26.727,133.154,75.255,181.684c44.837,44.838,103.331,71.044,166.101,74.776v31.674H113.84V512h342.021v-31.166H300.434
			v-31.674C363.203,445.43,421.698,419.223,466.536,374.385z"/>
	</g>
</g>
</svg>